<svg xmlns="http://www.w3.org/2000/svg" width="46.375" height="29.858" viewBox="0 0 46.375 29.858"><defs><style>.a{fill:#fcda5f;}.b{fill:#504741;}</style></defs><rect class="a" width="25.517" height="10.283" transform="translate(17.753 16.686)"/><g transform="translate(-23.008 -19.372)"><path class="b" d="M34.679,23.992v5.334a2.722,2.722,0,0,1-.832,2.1,3.2,3.2,0,0,1-2.271.774,3.235,3.235,0,0,1-2.253-.751,2.683,2.683,0,0,1-.851-2.063V23.992h1.669v5.344a1.545,1.545,0,0,0,.38,1.161,1.468,1.468,0,0,0,1.055.364q1.407,0,1.429-1.48V23.992Z"/><path class="b" d="M41.158,29.965a.853.853,0,0,0-.334-.725,4.356,4.356,0,0,0-1.2-.534,8.517,8.517,0,0,1-1.374-.554,2.244,2.244,0,0,1-1.379-2.007,1.966,1.966,0,0,1,.369-1.172,2.423,2.423,0,0,1,1.063-.8,3.993,3.993,0,0,1,1.554-.289,3.651,3.651,0,0,1,1.547.314,2.456,2.456,0,0,1,1.053.887,2.317,2.317,0,0,1,.376,1.3H41.163a1.091,1.091,0,0,0-.35-.865,1.44,1.44,0,0,0-.984-.308,1.534,1.534,0,0,0-.951.258.813.813,0,0,0-.34.681.784.784,0,0,0,.4.663,4.532,4.532,0,0,0,1.171.5,5.073,5.073,0,0,1,2.074,1.063,2.113,2.113,0,0,1,.651,1.579,1.948,1.948,0,0,1-.8,1.649,3.482,3.482,0,0,1-2.142.6,4.137,4.137,0,0,1-1.7-.342,2.688,2.688,0,0,1-1.17-.937,2.4,2.4,0,0,1-.4-1.379h1.675q0,1.34,1.6,1.341a1.559,1.559,0,0,0,.929-.243A.785.785,0,0,0,41.158,29.965Z"/><path class="b" d="M44.872,32.09v-8.1h2.491a3.794,3.794,0,0,1,1.911.481,3.361,3.361,0,0,1,1.315,1.368,4.226,4.226,0,0,1,.473,2.017v.372a4.243,4.243,0,0,1-.464,2.009,3.339,3.339,0,0,1-1.31,1.362,3.824,3.824,0,0,1-1.908.489Zm1.668-6.746V30.75h.807a1.814,1.814,0,0,0,1.5-.64,2.884,2.884,0,0,0,.528-1.829v-.429a2.935,2.935,0,0,0-.511-1.871,1.807,1.807,0,0,0-1.5-.637Z"/></g><path class="b" d="M35.5,35.444H27.572a3.3,3.3,0,0,1-3.3-3.3V23.937a3.3,3.3,0,0,1,3.3-3.3h24.39a3.3,3.3,0,0,1,3.3,3.3V31.26h1.265V23.937a4.57,4.57,0,0,0-4.564-4.565H27.572a4.57,4.57,0,0,0-4.564,4.565v8.209a4.569,4.569,0,0,0,4.564,4.564h7.7A5.76,5.76,0,0,1,35.5,35.444Z" transform="translate(-23.008 -19.372)"/><g transform="translate(-23.008 -19.372)"><path class="b" d="M62.046,38.5H60.517v2.541h1.49a1.465,1.465,0,0,0,1.01-.312,1.134,1.134,0,0,0,.347-.89,1.331,1.331,0,0,0-.35-.961A1.307,1.307,0,0,0,62.046,38.5Z"/><path class="b" d="M53.277,38.414a1.486,1.486,0,0,0-1.3.653,3.369,3.369,0,0,0-.462,1.916v.394a3.456,3.456,0,0,0,.456,1.926,1.6,1.6,0,0,0,2.6.025,3.423,3.423,0,0,0,.456-1.922v-.395a3.406,3.406,0,0,0-.456-1.935A1.487,1.487,0,0,0,53.277,38.414Z"/><path class="b" d="M66.277,33.159H40.237a3.105,3.105,0,0,0-3.106,3.106v9.859a3.105,3.105,0,0,0,3.106,3.106h26.04a3.105,3.105,0,0,0,3.106-3.106V36.265A3.105,3.105,0,0,0,66.277,33.159ZM43.553,43.386a1.392,1.392,0,0,0,1.254.607,1.65,1.65,0,0,0,1.154-.354,1.594,1.594,0,0,0,.437-1.092h1.668A2.86,2.86,0,0,1,47.1,44.6a3.381,3.381,0,0,1-2.294.751,3.047,3.047,0,0,1-2.45-1.048,4.3,4.3,0,0,1-.893-2.878v-.5a4.853,4.853,0,0,1,.412-2.056,3.074,3.074,0,0,1,1.177-1.366,3.67,3.67,0,0,1,4.034.276,3.074,3.074,0,0,1,.99,2.107H46.409a1.686,1.686,0,0,0-.437-1.137,1.613,1.613,0,0,0-1.143-.354,1.417,1.417,0,0,0-1.249.6,3.357,3.357,0,0,0-.425,1.855v.61A3.58,3.58,0,0,0,43.553,43.386Zm13.172-2.009a4.886,4.886,0,0,1-.423,2.1,3.178,3.178,0,0,1-1.21,1.39,3.573,3.573,0,0,1-3.6,0,3.2,3.2,0,0,1-1.224-1.382,4.74,4.74,0,0,1-.439-2.066v-.4a4.851,4.851,0,0,1,.431-2.1,3.208,3.208,0,0,1,1.217-1.4,3.568,3.568,0,0,1,3.6,0,3.216,3.216,0,0,1,1.218,1.4,4.852,4.852,0,0,1,.431,2.1Zm7.51.327a3.4,3.4,0,0,1-2.255.687H60.517v2.852H58.848v-8.1h3.159a3.662,3.662,0,0,1,1.6.334,2.462,2.462,0,0,1,1.065.948,2.649,2.649,0,0,1,.373,1.4A2.329,2.329,0,0,1,64.235,41.7Z"/></g><path class="b" d="M33.292,42.12a.632.632,0,1,0-1.109.608l1.381,2.525c-3.739-.42-5.951-2.946-5.951-6.979a.633.633,0,1,0-1.265,0c0,4.428,2.374,7.405,6.318,8.146L30.476,47.7a.633.633,0,0,0,.641,1.092l4.412-2.588Z" transform="translate(-23.008 -19.372)"/><path class="b" d="M61.528,22.6l2.19-1.283a.633.633,0,0,0-.64-1.093l-4.413,2.588L60.9,26.9a.633.633,0,0,0,1.11-.608L60.63,23.77c3.739.42,5.951,2.947,5.951,6.98a.633.633,0,0,0,1.266,0C67.847,26.321,65.472,23.344,61.528,22.6Z" transform="translate(-23.008 -19.372)"/></svg>