<svg xmlns="http://www.w3.org/2000/svg" xmlns:xlink="http://www.w3.org/1999/xlink" width="75" height="76" viewBox="0 0 75 76"><defs><style>.a{fill:none;}.b{fill:#05ac56;}.c{fill:#fff;}.d{filter:url(#a);}</style><filter id="a" x="1" y="3" width="73" height="73" filterUnits="userSpaceOnUse"><feOffset dy="3" input="SourceAlpha"/><feGaussianBlur stdDeviation="3" result="b"/><feFlood flood-opacity="0.161"/><feComposite operator="in" in2="b"/><feComposite in="SourceGraphic"/></filter></defs><rect class="a" width="75" height="73"/><g transform="translate(-1220 -561)"><g class="d" transform="matrix(1, 0, 0, 1, 1220, 561)"><circle class="b" cx="27.5" cy="27.5" r="27.5" transform="translate(10 9)"/></g><g transform="translate(1245.713 581.008)"><g transform="translate(0 7.23)"><path class="c" d="M18.854,7.23H4.008A4.013,4.013,0,0,0,0,11.238V20.4A4.013,4.013,0,0,0,4.008,24.4h9.456l4.526,4.526a.8.8,0,0,0,1.369-.567V24.372a4.014,4.014,0,0,0,3.5-3.977V11.238A4.013,4.013,0,0,0,18.854,7.23Zm2.4,13.165a2.408,2.408,0,0,1-2.4,2.4h-.3a.8.8,0,0,0-.8.8v2.826l-3.393-3.393A.8.8,0,0,0,13.8,22.8H4.008a2.408,2.408,0,0,1-2.4-2.4V11.238a2.408,2.408,0,0,1,2.4-2.4H18.854a2.408,2.408,0,0,1,2.4,2.4Z" transform="translate(0 -7.23)"/><path class="c" d="M86.344,95.743h-11.8a.8.8,0,1,0,0,1.6h11.8a.8.8,0,1,0,0-1.6Z" transform="translate(-69.013 -90.066)"/><path class="c" d="M86.344,165.743h-11.8a.8.8,0,0,0,0,1.6h11.8a.8.8,0,0,0,0-1.6Z" transform="translate(-69.013 -155.577)"/></g></g></g></svg>