<svg xmlns="http://www.w3.org/2000/svg" width="24.957" height="26.602" viewBox="0 0 24.957 26.602"><defs><style>.a{fill:#504741;}</style></defs><g transform="translate(10.72 0)"><path class="a" d="M238.636,45.99a3.48,3.48,0,0,1,.172,1.494,11.9,11.9,0,0,0-.176,1.344,7.814,7.814,0,0,0,.074,1.246,4.772,4.772,0,0,0,.31,1.164,4.683,4.683,0,0,1,.315,1.568,5.39,5.39,0,0,1-.186,1.559,6.065,6.065,0,0,1-.634,1.347A7.549,7.549,0,0,0,237.975,57,3.474,3.474,0,0,1,237.8,55.5a12.124,12.124,0,0,0,.176-1.344,7.9,7.9,0,0,0-.073-1.246,4.818,4.818,0,0,0-.308-1.163,4.724,4.724,0,0,1-.315-1.568,5.414,5.414,0,0,1,.186-1.558,6.115,6.115,0,0,1,.634-1.347A7.6,7.6,0,0,0,238.636,45.99Z" transform="translate(-237.28 -45.99)"/></g><g transform="translate(6.647 4.009)"><path class="a" d="M232.591,56.389a1.386,1.386,0,0,1-.269-.747,2.913,2.913,0,0,0-.042-.619l-.1-.493a3.23,3.23,0,0,0-.143-.429,2.291,2.291,0,0,1-.148-.833,2.433,2.433,0,0,1,.155-.8,1.782,1.782,0,0,1,.416-.623,4.246,4.246,0,0,0,.439-.538,1.385,1.385,0,0,1,.272.747,2.964,2.964,0,0,0,.042.62l.1.492a3.08,3.08,0,0,0,.14.429,2.284,2.284,0,0,1,.147.833,2.429,2.429,0,0,1-.155.8,1.8,1.8,0,0,1-.416.624A4.247,4.247,0,0,0,232.591,56.389Z" transform="translate(-231.884 -51.302)"/></g><g transform="translate(15.124 4.009)"><path class="a" d="M243.821,56.389a1.392,1.392,0,0,1-.269-.747,2.925,2.925,0,0,0-.042-.619l-.1-.493a3.128,3.128,0,0,0-.143-.429,2.276,2.276,0,0,1-.147-.833,2.4,2.4,0,0,1,.155-.8,1.782,1.782,0,0,1,.416-.623,4.378,4.378,0,0,0,.439-.538,1.39,1.39,0,0,1,.272.747,3.03,3.03,0,0,0,.042.62l.1.492a3.193,3.193,0,0,0,.14.429,2.3,2.3,0,0,1,.146.833,2.427,2.427,0,0,1-.155.8,1.786,1.786,0,0,1-.417.624A4.314,4.314,0,0,0,243.821,56.389Z" transform="translate(-243.114 -51.302)"/></g><path class="a" d="M247.434,63.608c0-.012,0-.023,0-.035a1.024,1.024,0,0,0-.023-.219.98.98,0,0,0-.06-.212,1.668,1.668,0,0,0-.106-.2,1.031,1.031,0,0,0-.143-.174,1.432,1.432,0,0,0-.166-.143.954.954,0,0,0-.2-.1,1.145,1.145,0,0,0-.211-.068,1.106,1.106,0,0,0-.445,0,.987.987,0,0,0-.211.068.954.954,0,0,0-.2.1,1.51,1.51,0,0,0-.174.143,1.018,1.018,0,0,0-.136.174,1,1,0,0,0-.1.2.955.955,0,0,0-.069.212,1.024,1.024,0,0,0-.023.219c0,.011,0,.023,0,.035h-1.418c0-.012,0-.023,0-.035a1.132,1.132,0,1,0-2.264,0c0,.011,0,.023,0,.035h-1.426c0-.012,0-.023,0-.035a1.128,1.128,0,1,0-2.257,0c0,.011,0,.023,0,.035H236.4c0-.012,0-.023,0-.035a1.132,1.132,0,1,0-2.264,0c0,.011,0,.023,0,.035h-1.419c0-.012,0-.023,0-.035a1.132,1.132,0,1,0-2.264,0c0,.011,0,.023,0,.035H229.04c0-.012,0-.023,0-.035a1.132,1.132,0,1,0-2.264,0c0,.011,0,.023,0,.035h-1.418c0-.012,0-.023,0-.035a1.024,1.024,0,0,0-.023-.219.993.993,0,0,0-.068-.212.715.715,0,0,0-.106-.2.982.982,0,0,0-.136-.174,1.168,1.168,0,0,0-1.6,0,1.6,1.6,0,0,0-.143.174,1.666,1.666,0,0,0-.1.2.94.94,0,0,0-.061.212,1.024,1.024,0,0,0-.023.219c0,.012.007.023.007.035h-.032V65.1a6.477,6.477,0,0,0,4.942,6.281L227,76.312l1.479.306,1.046-5.047h2.344l-.98,4.671,1.477.309,1.045-4.98h3.347l1.106,4.989,1.474-.328L238.3,71.571h2.9l1.107,5.055,1.475-.323-1.06-4.842a6.477,6.477,0,0,0,5.312-6.362V63.608Zm-5.87,6.453h-4.549a5.065,5.065,0,0,0,2.421-4.319v-.625h7.089A4.966,4.966,0,0,1,241.564,70.061Z" transform="translate(-223.077 -50.024)"/></svg>