<svg xmlns="http://www.w3.org/2000/svg" width="26.864" height="25.32" viewBox="0 0 26.864 25.32"><defs><style>.a{fill:#504741;}.b{fill:none;stroke:#504741;stroke-miterlimit:10;stroke-width:2px;}</style></defs><path class="a" d="M402.847,63.852c.134,0,.268.006.4.018a4.633,4.633,0,0,1,3.014-1.117,4.563,4.563,0,0,1,1.153.163l.826-.474a3.985,3.985,0,0,1,1-.407l-.324-3.089v-.086a3.891,3.891,0,0,1,.933-2.513L408.8,50.467l-1.843,10.6-1.433-8.7-1.885,10.084.056-6.285-1.107-6.884-2.578,15.551A4.608,4.608,0,0,1,402.847,63.852Z" transform="translate(-398.199 -49.28)"/><g transform="translate(7.49 25.012)"><path class="b" d="M406.857,79.433" transform="translate(-406.857 -79.433)"/></g><path class="a" d="M426.925,65.908a2.01,2.01,0,0,0-1.938-2.27c-.853,0-.714-.691-.714-1.544l.332-3.169a2.271,2.271,0,0,0-2.27-2.27,1.543,1.543,0,0,1-1.544-1.544V51.943a2.27,2.27,0,0,0-4.541,0v3.168a1.543,1.543,0,0,1-1.544,1.544,2.27,2.27,0,0,0-2.27,2.27l.332,3.169c0,.853.139,1.544-.714,1.544a2.249,2.249,0,0,0-1.126.309,4.292,4.292,0,0,1,1.5,2.558,5.626,5.626,0,0,1,2.717,7.159h3.116V67.513l-3.281-2.759.776-1.068,2.671,2.263V59.937h1.161l.166,9.271,3.4-2.9.7.8-4.268,3.719v2.836h3.12a4.213,4.213,0,0,0,4.214-4.214V68.62a1.864,1.864,0,0,0-.022-.228c.011-.126.022-.252.022-.382Z" transform="translate(-400.061 -49.347)"/><path class="a" d="M408.864,70.5V70.5a2.973,2.973,0,0,0-5.408-1.706,2.97,2.97,0,0,0-3.833,3.646,3.422,3.422,0,0,0-1.8,3.012c0,1.89,1.532,2.261,3.422,2.261.446,0,1.535-.027,2.693-.058l.332-1.637L401.7,72.38l.827-.668,2.158,2.862,1.449-3.8.942.387-1.532,4.673,1.968-.541.26,1.078-2.453.589.119.645c.824-.021,1.705-.036,2.051-.036,2.338,0,4.232-.734,4.232-3.071A4.23,4.23,0,0,0,408.864,70.5Z" transform="translate(-397.827 -52.39)"/></svg>