<svg xmlns="http://www.w3.org/2000/svg" width="43.145" height="40.26" viewBox="0 0 43.145 40.26"><defs><style>.a{fill:#ffdb3b;}.b{fill:#008c44;}</style></defs><path class="a" d="M1545.931,900.584h18.521l1.263,4.209h-21.468Z" transform="translate(-1533.516 -865.375)"/><path class="b" d="M1563.073,869.628v0h-4.5l-1.275-3.823a.72.72,0,0,0-.683-.491h-2.2l-1.4-23.772a.719.719,0,0,0-1.435.084l1.393,23.687h-2.115v-2.875a.719.719,0,0,0-1.438,0v2.877h-1.437v-3.6a.719.719,0,0,0-1.438,0v3.6h-1.437V861a.719.719,0,0,0-1.437,0v4.315h-2.11l.34-5.3a.72.72,0,1,0-1.436-.092l-.346,5.394h-2.2a.719.719,0,0,0-.683.491l-1.275,3.823h-4.5a.719.719,0,0,0,0,1.438h31.609a.719.719,0,0,0,0-1.438Zm-25.59,0,.958-2.877H1556.1l.958,2.877Z" transform="translate(-1525.698 -830.806)"/><path class="b" d="M1521.63,827.718h1.679a7.269,7.269,0,0,0,2.235,2.036A14.227,14.227,0,0,0,1532,831.3a3.575,3.575,0,0,0,2.276,1.367l-.637,10.84a.717.717,0,0,0,.511.731l9.56,2.863a.719.719,0,1,0,.413-1.377l-9.016-2.7.375-6.364a11.937,11.937,0,0,0,5.311,4.672.723.723,0,1,0,.5-1.356,11.321,11.321,0,0,1-5.648-6.061l.116-1.967A20.872,20.872,0,0,0,1542,836.7a.758.758,0,0,0,.569-1.4c-2.825-1.147-6.005-4.685-6.683-5.465l.123-2.085a.719.719,0,1,0-1.429-.159.67.67,0,0,0,0,.091l-.134,2.285a.757.757,0,0,0-.018.3l-.056.949a1.933,1.933,0,0,1-1.307-.94.719.719,0,0,0-.643-.4c-.041,0-4.125-.018-6.073-1.317-1.507-1.007-1.808-1.575-1.845-1.667a.718.718,0,0,0-.711-.612h-2.159c-.935,0-1.437-.371-1.437-.719s.5-.719,1.438-.719a2.5,2.5,0,0,1,1.644.5.72.72,0,0,0,.547.209l13.662-.719a.719.719,0,0,0,.681-.719v-.05a3.4,3.4,0,0,0,4.313,0v.054a.718.718,0,0,0,.681.719l13.662.719a.754.754,0,0,0,.538-.2,2.491,2.491,0,0,1,1.657-.517c.934,0,1.438.371,1.438.719s-.5.719-1.437.719h-2.152a.718.718,0,0,0-.711.612c-.039.092-.333.66-1.844,1.667-1.949,1.3-6.028,1.317-6.073,1.317a.719.719,0,1,0,0,1.438c.185,0,4.559-.016,6.871-1.558a7.274,7.274,0,0,0,2.235-2.036h1.68c1.888,0,2.877-1.085,2.877-2.156s-.989-2.156-2.877-2.156a4.084,4.084,0,0,0-2.393.705l-12.725-.669c-.09-1.855-.612-6.507-3.578-6.507s-3.489,4.646-3.578,6.5l-12.72.671a4.087,4.087,0,0,0-2.393-.705c-1.893,0-2.881,1.083-2.881,2.156S1519.741,827.718,1521.63,827.718Zm18.7-9.348v0c1.083,0,1.677,1.719,1.959,3.422v.009a2,2,0,0,1-3.918.035C1538.637,820.12,1539.233,818.371,1540.325,818.371Z" transform="translate(-1518.753 -816.939)"/></svg>