<svg xmlns="http://www.w3.org/2000/svg" width="32.65" height="46.41" viewBox="0 0 32.65 46.41"><defs><style>.a{fill:#ebded5;}.b{fill:#f9f5f3;}</style></defs><g transform="translate(-8.828 1.762)"><g transform="translate(8.829 -1.762)"><g transform="translate(3.976 18.694)"><path class="a" d="M1534.523,987.422a.768.768,0,1,0,.768.768.768.768,0,0,0-.768-.768Z" transform="translate(-1533.755 -987.422)"/></g><g transform="translate(8.343 35.216)"><g transform="translate(0)"><path class="b" d="M1545.707,1029.689h.03a.782.782,0,0,1,.782.782v2.081a.259.259,0,0,1-.259.26h-1.075a.26.26,0,0,1-.26-.26v-2.081A.782.782,0,0,1,1545.707,1029.689Z" transform="translate(-1544.925 -1029.689)"/></g><g transform="translate(14.353)"><g transform="translate(0)"><path class="b" d="M1582.455,1029.689h-.03a.782.782,0,0,0-.782.782v2.081a.259.259,0,0,0,.259.26h1.074a.259.259,0,0,0,.259-.26v-2.081A.782.782,0,0,0,1582.455,1029.689Z" transform="translate(-1581.644 -1029.689)"/></g></g></g><g transform="translate(15.333 34.305)"><path class="b" d="M1564.248,1027.358h-.912a.526.526,0,0,0-.526.527v1.182a1.015,1.015,0,0,0,.948,1.01v.007c.012,0,.023,0,.035,0s.023,0,.035,0v-.007a1.014,1.014,0,0,0,.947-1.01v-1.182A.526.526,0,0,0,1564.248,1027.358Z" transform="translate(-1562.809 -1027.358)"/></g><path class="b" d="M1534.574,1001.572a.734.734,0,0,0-.734.734v2.82a.244.244,0,0,0,.244.244h.982a.244.244,0,0,0,.244-.244v-2.82A.735.735,0,0,0,1534.574,1001.572Z" transform="translate(-1529.83 -977.347)"/><rect class="b" width="1.535" height="2.197" transform="translate(3.977 36.439)"/><rect class="b" width="1.536" height="2.197" transform="translate(27.119 36.439)"/><rect class="b" width="1.533" height="4.038" transform="translate(3.977 41.3)"/><rect class="b" width="1.533" height="4.038" transform="translate(27.088 41.3)"/><path class="b" d="M1534.574,975.793a.735.735,0,0,0-.734.735v2.48h1.469v-2.48A.735.735,0,0,0,1534.574,975.793Z" transform="translate(-1529.83 -961.644)"/><path class="b" d="M1593.73,987.422a.768.768,0,1,0,.767.768A.768.768,0,0,0,1593.73,987.422Z" transform="translate(-1565.843 -968.727)"/><path class="b" d="M1594.516,976.528a.735.735,0,1,0-1.469,0v2.48h1.469Z" transform="translate(-1565.894 -961.644)"/><path class="b" d="M1555.3,973.664h.234a.7.7,0,0,0,0-1.407h-.234v-1.387a.7.7,0,0,0,0-1.385V962.9h.215a.7.7,0,0,0,0-1.407h-.215V951.6a3.83,3.83,0,0,0-3.826-3.826,3.879,3.879,0,0,0-.555.044v-1.57a.555.555,0,1,1,1.109,0v.52a.7.7,0,1,0,1.407,0v-.52a1.961,1.961,0,0,0-1.258-1.826V943.06h.516a.7.7,0,1,0,0-1.407h-.516v-.5a.7.7,0,1,0-1.407,0v.5h-.516a.7.7,0,1,0,0,1.407h.516v1.363a1.961,1.961,0,0,0-1.258,1.826v2.073a3.824,3.824,0,0,0-1.864,3.279v9.888h-.215a.7.7,0,1,0,0,1.407h.215v7.493a1.131,1.131,0,0,1-2.16.472.7.7,0,0,0-.106-1.382V962.89a.7.7,0,0,0-.053-1.4h-.529l-4.175-3.543v-1.361h.515a.7.7,0,1,0,0-1.407h-.515v-.495a.7.7,0,0,0-1.407,0v.495h-.516a.7.7,0,0,0,0,1.407h.516v1.389l-4.208,3.514h-.535a.7.7,0,0,0-.052,1.4v6.588a.7.7,0,0,0-.106,1.382,1.131,1.131,0,0,1-2.16-.472V962.9h.214a.7.7,0,0,0,0-1.407h-.214V951.6a3.83,3.83,0,0,0-3.826-3.826,3.878,3.878,0,0,0-.555.044v-1.57a.554.554,0,1,1,1.109,0v.52a.7.7,0,1,0,1.407,0v-.52a1.96,1.96,0,0,0-1.258-1.825V943.06h.516a.7.7,0,1,0,0-1.407h-.516v-.5a.7.7,0,0,0-1.407,0v.5h-.516a.7.7,0,1,0,0,1.407h.516v1.363a1.961,1.961,0,0,0-1.258,1.826v2.073a3.824,3.824,0,0,0-1.864,3.279v9.888h-.215a.7.7,0,1,0,0,1.407h.215v6.578h-.2a.7.7,0,0,0,0,1.407h.2v1.376h-.2a.7.7,0,0,0,0,1.407h.2v8.37l-.841.156v4.674h32.476v-4.59l-.841-.091Zm-19.518-2.783h8.241a2.534,2.534,0,0,0,.775,1.376H1535A2.536,2.536,0,0,0,1535.777,970.88Zm8.192-7.985v6.578h-1.646V967.1a.688.688,0,0,0,.649-.855,2.587,2.587,0,0,0-.813-1.3.7.7,0,0,0-.241-.189,3.349,3.349,0,0,0-1.983-.58h-.076a3.323,3.323,0,0,0-2.05.627.669.669,0,0,0-.1.082,2.61,2.61,0,0,0-.886,1.356.7.7,0,0,0,.531.841.719.719,0,0,0,.139.017v2.37h-1.667V962.9Zm-5.07,2.886a2.178,2.178,0,0,1,.96-.2h.076a2.165,2.165,0,0,1,.981.2v3.683H1538.9Zm10.1,5.1h4.887v1.376h-5.662A2.536,2.536,0,0,0,1549,970.88Zm.048-19.28a2.419,2.419,0,1,1,4.838,0v.025h-4.838Zm0,1.432h4.838v8.456h-4.838Zm4.838,9.863v6.578h-4.838V962.9Zm-13.956-3.688,2.688,2.281H1537.2Zm-14.025-7.607a2.419,2.419,0,1,1,4.838,0v.025h-4.838Zm0,1.432h4.838v8.456h-4.838Zm0,9.863h4.838v6.578h-4.838Zm4.887,7.985a2.534,2.534,0,0,0,.775,1.376h-5.662V970.88Zm1.316,14.577v-4.8h1.221v4.8Zm9.245,0h-2.916v-5.931l1.458-.067,1.458.067Zm5.108,0v-4.8h1.221v4.8Zm8.266,0h-5.637v-6.211h-4.035v6.211h-2.294v-7.275l-2.865-.131-2.865.131v7.275h-2.293v-6.211H1530.7v6.211h-5.637V983.6l.841-.156v-9.777h27.981v9.783l.841.091Z" transform="translate(-1523.582 -940.454)"/><path class="b" d="M1593.29,1005.371h.983a.244.244,0,0,0,.243-.244v-2.82a.735.735,0,0,0-1.469,0v2.82A.244.244,0,0,0,1593.29,1005.371Z" transform="translate(-1565.894 -977.347)"/></g></g></svg>