<svg xmlns="http://www.w3.org/2000/svg" width="29.524" height="31.32" viewBox="0 0 29.524 31.32"><defs><style>.a{fill:#504741;}</style></defs><path class="a" d="M139.542,81.39h3.381v-.006a5.779,5.779,0,0,1,.254-1.672H139.3Z" transform="translate(-132.876 -50.07)"/><path class="a" d="M144.664,68.742l3.116-1.135.351-2.411H136.374l.826-1.51H148.35l.042-2.679h-1.057a1.486,1.486,0,0,0-.737-1.279V54.918a4.462,4.462,0,0,0-8.924,0v4.159a1.761,1.761,0,0,1-.246-.33l-1.549-2.83-1.548,2.831a1.792,1.792,0,0,1-.711.712l-2.832,1.548,2.831,1.547a1.789,1.789,0,0,1,.712.712L135.88,66.1l.311-.568.8,5.5H141.8A5.8,5.8,0,0,1,144.664,68.742Zm-5.48-13.824a2.952,2.952,0,0,1,5.9,0v4.809a1.486,1.486,0,0,0-.737,1.279H140.97l-1.218-.666a1.5,1.5,0,0,0-.568-.614Zm-3.3,8.034-.223-.409a3.294,3.294,0,0,0-1.312-1.312l-.409-.223.41-.224a3.291,3.291,0,0,0,1.31-1.312l.224-.409.224.409a3.288,3.288,0,0,0,1.311,1.312l.409.224-.41.223a3.287,3.287,0,0,0-1.31,1.311Z" transform="translate(-130.789 -42.896)"/><path class="a" d="M161.381,62.093l2.687-1.47-2.687-1.47V52.309h-1.51v4.859l-.894-1.636-1.548,2.832a1.785,1.785,0,0,1-.711.711l-2.831,1.548,2.831,1.55a1.78,1.78,0,0,1,.71.709l1.549,2.833.894-1.636V67.5h-2.428v.016l-8.508,3.1a4.309,4.309,0,0,0-2.834,4.049h11.385v-.039h6.31V67.5h-2.415Zm-2.18.065-.223.409-.224-.41a3.285,3.285,0,0,0-1.31-1.31l-.41-.225.409-.223a3.292,3.292,0,0,0,1.312-1.311l.223-.409.224.41a3.282,3.282,0,0,0,1.311,1.31l.409.224-.409.224A3.292,3.292,0,0,0,159.2,62.158Zm3.086,7.5v3.5h-7.922a2.8,2.8,0,0,1,1.4-1.122Z" transform="translate(-134.544 -43.35)"/><rect class="a" width="3.298" height="4.874" rx="0.957" transform="translate(24.433 3.442)"/><path class="a" d="M149.509,47.789l1.548,2.831,1.549-2.831a1.771,1.771,0,0,1,.711-.711l2.83-1.548-2.83-1.548a1.787,1.787,0,0,1-.712-.711l-1.548-2.832-1.548,2.831a1.781,1.781,0,0,1-.711.711l-2.831,1.549,2.831,1.549A1.784,1.784,0,0,1,149.509,47.789Zm.014-2.483a3.3,3.3,0,0,0,1.311-1.311l.223-.41.224.41a3.281,3.281,0,0,0,1.311,1.311l.409.224-.409.223a3.281,3.281,0,0,0-1.311,1.311l-.224.41-.224-.41a3.284,3.284,0,0,0-1.311-1.31l-.41-.224Z" transform="translate(-134.511 -40.439)"/></svg>